<?xml version="1.0" encoding="UTF-8" standalone="no"?>
<!-- Created with Keyshape -->
<svg xmlns="http://www.w3.org/2000/svg" xmlns:xlink="http://www.w3.org/1999/xlink" id="Ebene_1" data-name="Ebene 1" width="552" height="379.32" viewBox="0 0 552 379.32">
    <defs>
        <linearGradient id="Gradient-0" x1="131.74" y1="248.16" x2="316.68" y2="248.16" gradientUnits="userSpaceOnUse">
            <stop offset="0" stop-color="#718095" stop-opacity="0.2"/>
            <stop offset="1" stop-color="#718095" stop-opacity="0.7"/>
        </linearGradient>
        <linearGradient id="Gradient-1" x1="-389.76" y1="163.57" x2="-389.76" y2="17.46" gradientUnits="userSpaceOnUse" gradientTransform="matrix(-1 0 0 1 -103.03 0)">
            <stop offset="0" stop-color="#ffffff"/>
            <stop offset="0.35" stop-color="#fbfbfc"/>
            <stop offset="0.71" stop-color="#eff0f3"/>
            <stop offset="1" stop-color="#dfe2e7"/>
        </linearGradient>
        <linearGradient id="Gradient-2" x1="228.05" y1="163.56" x2="228.05" y2="17.45" gradientUnits="userSpaceOnUse">
            <stop offset="0" stop-color="#ffffff"/>
            <stop offset="0.11" stop-color="#fbfbfc"/>
            <stop offset="0.23" stop-color="#eff0f3"/>
            <stop offset="0.34" stop-color="#dbdee4"/>
            <stop offset="0.46" stop-color="#bec5ce"/>
            <stop offset="0.55" stop-color="#a3acba"/>
            <stop offset="0.67" stop-color="#95a0b0"/>
            <stop offset="0.92" stop-color="#99a3b3"/>
            <stop offset="1" stop-color="#9ca6b5"/>
        </linearGradient>
        <linearGradient id="Gradient-3" x1="254.29" y1="-7.68" x2="264.97" y2="78.96" gradientUnits="userSpaceOnUse">
            <stop offset="0.29" stop-color="#ffffff"/>
            <stop offset="0.54" stop-color="#f9fafb"/>
            <stop offset="0.85" stop-color="#e9ebef"/>
            <stop offset="1" stop-color="#dfe2e7"/>
        </linearGradient>
        <linearGradient id="Gradient-4" x1="11.69" y1="300.08" x2="238.17" y2="300.08" gradientUnits="userSpaceOnUse">
            <stop offset="0" stop-color="#2581c4"/>
            <stop offset="0.97" stop-color="#2581c4" stop-opacity="0.2"/>
            <stop offset="1" stop-color="#2581c4" stop-opacity="0"/>
        </linearGradient>
        <linearGradient id="Gradient-5" x1="443.54" y1="166.84" x2="443.54" y2="20.73" gradientUnits="userSpaceOnUse">
            <stop offset="0" stop-color="#ffffff"/>
            <stop offset="0.11" stop-color="#fbfbfc"/>
            <stop offset="0.23" stop-color="#eff0f3"/>
            <stop offset="0.34" stop-color="#dbdee4"/>
            <stop offset="0.46" stop-color="#bec5ce"/>
            <stop offset="0.55" stop-color="#a3acba"/>
            <stop offset="0.67" stop-color="#95a0b0"/>
            <stop offset="0.92" stop-color="#99a3b3"/>
            <stop offset="1" stop-color="#9ca6b5"/>
        </linearGradient>
        <linearGradient id="Gradient-6" x1="-605.24" y1="166.85" x2="-605.24" y2="20.74" gradientUnits="userSpaceOnUse">
            <stop offset="0" stop-color="#ffffff"/>
            <stop offset="0.35" stop-color="#fbfbfc"/>
            <stop offset="0.71" stop-color="#eff0f3"/>
            <stop offset="1" stop-color="#dfe2e7"/>
        </linearGradient>
        <linearGradient id="Gradient-7" x1="472.29" y1="1.47" x2="474.26" y2="66.35" gradientUnits="userSpaceOnUse">
            <stop offset="0" stop-color="#ffffff"/>
            <stop offset="0.34" stop-color="#f9fafb"/>
            <stop offset="0.79" stop-color="#e9ebef"/>
            <stop offset="1" stop-color="#dfe2e7"/>
        </linearGradient>
        <linearGradient id="Gradient-8" x1="334.16" y1="194.62" x2="334.16" y2="48.51" gradientUnits="userSpaceOnUse">
            <stop offset="0" stop-color="#ffffff"/>
            <stop offset="0.25" stop-color="#fbfbfc"/>
            <stop offset="0.5" stop-color="#eff0f3"/>
            <stop offset="0.71" stop-color="#dfe2e7"/>
        </linearGradient>
        <linearGradient id="Gradient-9" x1="-495.87" y1="194.63" x2="-495.87" y2="48.52" gradientUnits="userSpaceOnUse">
            <stop offset="0" stop-color="#ffffff"/>
            <stop offset="0.35" stop-color="#fbfbfc"/>
            <stop offset="0.71" stop-color="#eff0f3"/>
            <stop offset="1" stop-color="#dfe2e7"/>
        </linearGradient>
        <linearGradient id="Gradient-10" x1="241.23" y1="272.48" x2="241.23" y2="126.37" gradientUnits="userSpaceOnUse">
            <stop offset="0" stop-color="#ffffff"/>
            <stop offset="0.25" stop-color="#fbfbfc"/>
            <stop offset="0.5" stop-color="#eff0f3"/>
            <stop offset="0.71" stop-color="#dfe2e7"/>
        </linearGradient>
        <linearGradient id="Gradient-11" x1="-402.94" y1="272.49" x2="-402.94" y2="126.38" gradientUnits="userSpaceOnUse">
            <stop offset="0" stop-color="#ffffff"/>
            <stop offset="0.35" stop-color="#fbfbfc"/>
            <stop offset="0.71" stop-color="#eff0f3"/>
            <stop offset="1" stop-color="#dfe2e7"/>
        </linearGradient>
        <linearGradient id="Gradient-12" x1="427.08" y1="251.4" x2="427.08" y2="105.29" gradientUnits="userSpaceOnUse">
            <stop offset="0" stop-color="#ffffff"/>
            <stop offset="0.25" stop-color="#fbfbfc"/>
            <stop offset="0.5" stop-color="#eff0f3"/>
            <stop offset="0.71" stop-color="#dfe2e7"/>
        </linearGradient>
        <linearGradient id="Gradient-13" x1="-588.78" y1="251.41" x2="-588.78" y2="105.3" gradientUnits="userSpaceOnUse">
            <stop offset="0" stop-color="#ffffff"/>
            <stop offset="0.35" stop-color="#fbfbfc"/>
            <stop offset="0.71" stop-color="#eff0f3"/>
            <stop offset="1" stop-color="#dfe2e7"/>
        </linearGradient>
        <linearGradient id="Gradient-14" x1="554.48" y1="164.86" x2="554.48" y2="59.46" gradientUnits="userSpaceOnUse" gradientTransform="matrix(0.866025 0.5 -0.5 0.866025 -284.69 -236.96)">
            <stop offset="0" stop-color="#4a6dc9" stop-opacity="0.4"/>
            <stop offset="1" stop-color="#4a6dc9" stop-opacity="0.7"/>
        </linearGradient>
        <linearGradient id="Gradient-15" x1="-1434.62" y1="188.17" x2="-1416.15" y2="188.17" gradientUnits="userSpaceOnUse" gradientTransform="matrix(0.87 0.5 0.5 1.44 1303.74 637.65)">
            <stop offset="0.04" stop-color="#e7f9fc" stop-opacity="0"/>
            <stop offset="0.1" stop-color="#d8ecf7" stop-opacity="0.05"/>
            <stop offset="0.37" stop-color="#9bb5e3" stop-opacity="0.24"/>
            <stop offset="0.62" stop-color="#6f8ed5" stop-opacity="0.38"/>
            <stop offset="0.84" stop-color="#5476cc" stop-opacity="0.47"/>
            <stop offset="1" stop-color="#4a6dc9" stop-opacity="0.5"/>
        </linearGradient>
        <linearGradient id="Gradient-16" x1="-1490.78" y1="188.05" x2="-1472.32" y2="188.05" gradientUnits="userSpaceOnUse" gradientTransform="matrix(0.87 0.5 0.5 1.44 1303.74 637.65)">
            <stop offset="0" stop-color="#4a6dc9" stop-opacity="0.5"/>
            <stop offset="0.16" stop-color="#5476cc" stop-opacity="0.47"/>
            <stop offset="0.38" stop-color="#6f8ed5" stop-opacity="0.38"/>
            <stop offset="0.63" stop-color="#9bb5e3" stop-opacity="0.24"/>
            <stop offset="0.9" stop-color="#d8ecf7" stop-opacity="0.05"/>
            <stop offset="0.96" stop-color="#e7f9fc" stop-opacity="0"/>
        </linearGradient>
        <linearGradient id="Gradient-17" x1="139.03" y1="79.34" x2="139.03" y2="138.6" gradientUnits="userSpaceOnUse" gradientTransform="matrix(0.87 0.5 0 1.15 18.25 -62.05)">
            <stop offset="0" stop-color="#e7f9fc" stop-opacity="0"/>
            <stop offset="1" stop-color="#ffffff" stop-opacity="0.5"/>
        </linearGradient>
        <linearGradient id="Gradient-18" x1="3692.45" y1="186.75" x2="3682.32" y2="204.29" gradientUnits="userSpaceOnUse" gradientTransform="matrix(0.87 -0.5 1 0.58 -3111.23 2035.47)">
            <stop offset="0" stop-color="#e7f9fc"/>
            <stop offset="0.1" stop-color="#e3ead9"/>
            <stop offset="0.28" stop-color="#dbd09c"/>
            <stop offset="0.46" stop-color="#d5ba69"/>
            <stop offset="0.62" stop-color="#d0a841"/>
            <stop offset="0.77" stop-color="#cc9c24"/>
            <stop offset="0.9" stop-color="#ca9513"/>
            <stop offset="1" stop-color="#c9920d"/>
        </linearGradient>
        <linearGradient id="Gradient-19" x1="3724.29" y1="144.634" x2="3714.17" y2="162.174" gradientUnits="userSpaceOnUse" gradientTransform="matrix(0.87 -0.5 1 0.58 -3374.48 1771.15)">
            <stop offset="0" stop-color="#f7ea83"/>
            <stop offset="1" stop-color="#f7b84a"/>
        </linearGradient>
    </defs>
    <style>
@keyframes a0_o { 0% { opacity: 0.07; } 57.3529% { opacity: 0.07; } 58.0882% { opacity: 1; } 72.0588% { opacity: 1; } 72.7941% { opacity: 0.07; } 100% { opacity: 0.07; } }
@keyframes a1_o { 0% { opacity: 1; } 7.3529% { opacity: 1; } 8.0882% { opacity: 0.15; } 19.1176% { opacity: 0.15; } 19.8529% { opacity: 1; } 43.3824% { opacity: 1; } 44.1176% { opacity: 0.15; } 72.0588% { opacity: 0.15; } 72.7941% { opacity: 1; } 100% { opacity: 1; } }
@keyframes a2_o { 0% { opacity: 1; } 7.3529% { opacity: 1; } 8.0882% { opacity: 0.15; } 8.8235% { opacity: 1; } 57.3529% { opacity: 1; } 58.0882% { opacity: 0.15; } 72.0588% { opacity: 0.15; } 72.7941% { opacity: 1; } 100% { opacity: 1; } }
@keyframes a3_o { 0% { opacity: 1; } 7.3529% { opacity: 1; } 8.0882% { opacity: 0.15; } 19.1176% { opacity: 0.15; } 19.8529% { opacity: 1; } 57.3529% { opacity: 1; } 58.0882% { opacity: 0.15; } 72.0588% { opacity: 0.15; } 72.7941% { opacity: 1; } 100% { opacity: 1; } }
@keyframes a4_o { 0% { opacity: 0.15; } 8.0882% { opacity: 0.15; } 8.8235% { opacity: 1; } 100% { opacity: 1; } }
@keyframes a5_o { 0% { opacity: 1; } 7.3529% { opacity: 1; } 8.0882% { opacity: 0.15; } 19.1176% { opacity: 0.15; } 19.8529% { opacity: 1; } 57.3529% { opacity: 1; } 58.0882% { opacity: 0.15; } 100% { opacity: 0.15; } }
@keyframes a6_o { 0% { opacity: 1; } 72.0588% { opacity: 1; } 72.7941% { opacity: 0.15; } 86.7647% { opacity: 0.15; } 87.5% { opacity: 1; } 100% { opacity: 1; } }
@keyframes a7_o { 0% { opacity: 1; } 7.3529% { opacity: 1; } 8.0882% { opacity: 0.15; } 19.1176% { opacity: 0.15; } 19.8529% { opacity: 1; } 30.1471% { opacity: 1; } 30.8824% { opacity: 0.15; } 43.3824% { opacity: 0.15; } 44.1176% { opacity: 1; } 57.3529% { opacity: 1; } 58.0882% { opacity: 0.15; } 72.0588% { opacity: 0.15; } 72.7941% { opacity: 1; } 86.7647% { opacity: 1; } 87.5% { opacity: 0.15; } 100% { opacity: 0.15; } }
@keyframes a8_o { 0% { opacity: 0.15; } 43.3824% { opacity: 0.15; } 44.1176% { opacity: 1; } 100% { opacity: 1; } }
@keyframes a9_o { 0% { opacity: 1; } 43.3824% { opacity: 1; } 44.1176% { opacity: 0.15; } 100% { opacity: 0.15; } }
@keyframes a10_o { 0% { opacity: 1; } 56.6176% { opacity: 1; } 58.0882% { opacity: 0.2; } 100% { opacity: 0.2; } }
@keyframes a11_o { 0% { opacity: 1; } 56.6176% { opacity: 1; } 58.0882% { opacity: 0.2; } 100% { opacity: 0.2; } }
@keyframes a12_o { 0% { opacity: 1; } 56.6176% { opacity: 1; } 58.0882% { opacity: 0.2; } 100% { opacity: 0.2; } }
@keyframes a13_o { 0% { opacity: 1; } 56.6176% { opacity: 1; } 58.0882% { opacity: 0.2; } 100% { opacity: 0.2; } }
@keyframes a14_o { 0% { opacity: 1; } 56.6176% { opacity: 1; } 58.0882% { opacity: 0.2; } 100% { opacity: 0.2; } }
@keyframes a15_o { 0% { opacity: 1; } 56.6176% { opacity: 1; } 58.0882% { opacity: 0.2; } 100% { opacity: 0.2; } }
@keyframes a16_o { 0% { opacity: 1; } 56.6176% { opacity: 1; } 58.0882% { opacity: 0.2; } 100% { opacity: 0.2; } }
@keyframes a17_o { 0% { opacity: 1; } 56.6176% { opacity: 1; } 58.0882% { opacity: 0.2; } 100% { opacity: 0.2; } }
@keyframes a18_f { 0% { fill: #fff; } 52.2059% { fill: #fff; } 53.6765% { fill: #263d5d; } 100% { fill: #263d5d; } }
@keyframes a19_o { 0% { opacity: 1; } 52.2059% { opacity: 1; } 53.6765% { opacity: 0; } 100% { opacity: 0; } }
@keyframes a20_o { 0% { opacity: 0; } 52.2059% { opacity: 0; } 52.9412% { opacity: 1; } 100% { opacity: 1; } }
@keyframes a21_t { 0% { transform: translate(272px,303.8035px); } 6.6176% { transform: translate(272px,303.8035px); } 9.5588% { transform: translate(272px,324.8035px); } 100% { transform: translate(272px,324.8035px); } }
@keyframes a21_o { 0% { opacity: 0; } 6.6176% { opacity: 0; } 9.5588% { opacity: 1; } 100% { opacity: 1; } }
@keyframes a22_t { 0% { transform: translate(272px,294.8035px); } 19.8529% { transform: translate(272px,294.8035px); } 22.7941% { transform: translate(272px,317.224167px); } 100% { transform: translate(272px,317.224167px); } }
@keyframes a22_o { 0% { opacity: 0; } 19.8529% { opacity: 0; } 22.7941% { opacity: 1; } 100% { opacity: 1; } }
@keyframes a23_t { 0% { transform: translate(272px,289.8035px); } 32.3529% { transform: translate(272px,289.8035px); } 35.2941% { transform: translate(272px,311.2245px); } 100% { transform: translate(272px,311.2245px); } }
@keyframes a23_o { 0% { opacity: 0; } 32.3529% { opacity: 0; } 35.2941% { opacity: 1; } 100% { opacity: 1; } }
@keyframes a24_t { 0% { transform: translate(272px,283.890833px); } 41.9117% { transform: translate(272px,283.890833px); } 44.8529% { transform: translate(272px,306.2245px); } 100% { transform: translate(272px,306.2245px); } }
@keyframes a24_o { 0% { opacity: 0; } 41.9118% { opacity: 0; } 44.8529% { opacity: 1; } 100% { opacity: 1; } }
    </style>
    <title>pay-as-u-use</title>
    <path d="M132.24,194.87L132.24,222.71C132.24,223.059,132.286,223.407,132.377,223.744C132.468,224.081,132.602,224.405,132.777,224.708C132.952,225.01,133.165,225.288,133.412,225.535C133.659,225.782,133.938,225.995,134.24,226.17L261.93,300C262.46,300.306,263.027,300.541,263.618,300.699C264.209,300.858,264.818,300.938,265.43,300.938C266.042,300.938,266.651,300.858,267.242,300.699C267.833,300.541,268.4,300.306,268.93,300L316.4,272.28" fill="none" stroke="url(#Gradient-0)" stroke-miterlimit="10"/>
    <g opacity="0.4">
        <path d="M316.06,17.46L316.06,129.69L257.39,163.57L257.39,51.33L316.06,17.46Z" fill="url(#Gradient-1)"/>
        <path d="M198.72,17.45L198.72,129.68L257.39,163.56L257.39,51.32L198.72,17.45Z" fill="url(#Gradient-2)" opacity="0.25"/>
        <path d="M213.4,8.97L198.72,17.45L257.39,51.33L316.06,17.45L301.37,8.97L213.4,8.97Z" fill="url(#Gradient-3)"/>
    </g>
    <path d="M166.18,372.69L12.7,284.07C11.21,283.22,11.4,281.72,13.11,280.73L77.88,243.33C78.3187,243.085,78.7846,242.893,79.2681,242.756C79.7516,242.62,80.2495,242.54,80.7514,242.519C81.2534,242.499,81.7561,242.537,82.2492,242.633C82.7423,242.729,83.2225,242.882,83.68,243.09L237.17,331.71C238.66,332.57,238.47,334.06,236.75,335.06L172,372.45C171.56,372.696,171.093,372.89,170.607,373.028C170.122,373.165,169.623,373.245,169.119,373.266C168.615,373.286,168.11,373.248,167.615,373.151C167.121,373.054,166.639,372.899,166.18,372.69Z" fill="#718095" opacity="0.3"/>
    <path d="M166.18,364.88L12.7,276.27C11.21,275.41,11.4,273.91,13.11,272.92L77.88,235.53C78.3185,235.285,78.7841,235.092,79.2674,234.955C79.7507,234.817,80.2484,234.737,80.7503,234.716C81.2522,234.694,81.7549,234.731,82.2482,234.826C82.7415,234.921,83.222,235.073,83.68,235.28L237.17,323.9C238.66,324.76,238.47,326.26,236.75,327.25L172,364.64C171.56,364.886,171.093,365.08,170.607,365.218C170.122,365.355,169.623,365.435,169.119,365.456C168.615,365.476,168.11,365.438,167.615,365.341C167.121,365.244,166.639,365.089,166.18,364.88Z" fill="url(#Gradient-4)"/>
    <path d="M110.59,288.87L100,282.76L96.57,282.75L96.58,284.73L107.18,290.84L110.59,290.84L110.59,288.87Z" fill="#fff"/>
    <path d="M125.61,280.2L115.01,274.09L111.59,274.08L111.6,276.06L122.19,282.17L125.61,282.17L125.61,280.2Z" fill="#fff"/>
    <path d="M95.53,297.57L84.94,291.45L81.51,291.44L81.53,293.42L92.12,299.54L95.53,299.54L95.53,297.57Z" fill="#fff"/>
    <path d="M115.17,290.83L125.76,284.71L125.78,282.73L122.35,282.74L111.76,288.86L111.76,290.83L115.17,290.83Z" fill="#fff"/>
    <path d="M100.02,282.08L110.61,275.96L110.62,273.99L107.2,273.99L96.61,280.11L96.61,282.08L100.02,282.08Z" fill="#fff"/>
    <path d="M99.94,299.62L110.53,293.5L110.54,291.53L107.12,291.54L96.53,297.65L96.52,299.62L99.94,299.62Z" fill="#fff"/>
    <path d="M84.84,290.9L95.43,284.79L95.45,282.81L92.02,282.82L81.43,288.93L81.43,290.91L84.84,290.9Z" fill="#fff"/>
    <path d="M84.06,273.56L73.47,267.44L70.04,267.43L70.06,269.41L80.65,275.53L84.06,275.53L84.06,273.56Z" fill="#fff" opacity="0.15"/>
    <path d="M99.08,264.89L88.48,258.77L85.06,258.76L85.07,260.74L95.66,266.86L99.08,266.86L99.08,264.89Z" fill="#fff"/>
    <path d="M92.34,265.71L77.36,265.71L74.93,267.11L77.36,268.5L92.34,268.5L94.76,267.11L92.34,265.71Z" fill="#fff" opacity="0.07"/>
    <path d="M118.57,280.97L103.59,280.97L101.16,282.36L103.59,283.76L118.57,283.76L120.99,282.36L118.57,280.97Z" fill="#fff" opacity="0.07"/>
    <path d="M185.73,319.86L170.75,319.86L168.32,321.25L170.75,322.64L185.73,322.64L188.15,321.25L185.73,319.86Z" fill="#fff" opacity="0.07" style="animation: 13.6s linear infinite both a0_o;"/>
    <path d="M69,282.25L58.41,276.13L54.98,276.13L55,278.11L65.59,284.22L69,284.22L69,282.25Z" fill="#fff"/>
    <path d="M88.64,275.51L99.23,269.39L99.25,267.42L95.82,267.43L85.23,273.54L85.23,275.51L88.64,275.51Z" fill="#fff"/>
    <path d="M73.49,266.76L84.08,260.65L84.09,258.67L80.67,258.68L70.08,264.79L70.08,266.76L73.49,266.76Z" fill="#fff"/>
    <path d="M73.41,284.3L84,278.19L84.02,276.21L80.59,276.22L70,282.33L70,284.31L73.41,284.3Z" fill="#fff"/>
    <path d="M58.31,275.59L68.91,269.47L68.92,267.5L65.49,267.5L54.9,273.62L54.9,275.59L58.31,275.59Z" fill="#fff"/>
    <path d="M177.77,327.66L167.18,321.55L163.76,321.54L163.77,323.51L174.36,329.63L177.78,329.63L177.77,327.66Z" fill="#fff" opacity="1" style="animation: 13.6s linear infinite both a1_o;"/>
    <path d="M192.79,318.99L182.2,312.88L178.77,312.87L178.78,314.85L189.38,320.96L192.79,320.96L192.79,318.99Z" fill="#fff" opacity="1" style="animation: 13.6s linear infinite both a2_o;"/>
    <path d="M162.71,336.36L152.12,330.24L148.7,330.23L148.71,332.21L159.3,338.32L162.72,338.33L162.71,336.36Z" fill="#fff" opacity="1" style="animation: 13.6s linear infinite both a3_o;"/>
    <path d="M182.36,329.62L192.95,323.5L192.96,321.52L189.53,321.53L178.94,327.64L178.94,329.62L182.36,329.62Z" fill="#fff" opacity="0.15" style="animation: 13.6s linear infinite both a4_o;"/>
    <path d="M167.2,320.87L177.8,314.75L177.81,312.77L174.38,312.78L163.79,318.9L163.79,320.87L167.2,320.87Z" fill="#fff" opacity="1" style="animation: 13.6s linear infinite both a5_o;"/>
    <path d="M167.12,338.41L177.72,332.29L177.73,330.32L174.3,330.32L163.71,336.44L163.71,338.41L167.12,338.41Z" fill="#fff" opacity="1" style="animation: 13.6s linear infinite both a6_o;"/>
    <path d="M152.03,329.69L162.62,323.58L162.63,321.6L159.21,321.61L148.61,327.72L148.61,329.69L152.03,329.69Z" fill="#fff" opacity="1" style="animation: 13.6s linear infinite both a7_o;"/>
    <path d="M151.24,312.34L140.65,306.23L137.23,306.22L137.24,308.2L147.83,314.31L151.25,314.32L151.24,312.34Z" fill="#fff"/>
    <path d="M166.26,303.68L155.67,297.56L152.24,297.55L152.26,299.53L162.85,305.64L166.26,305.65L166.26,303.68Z" fill="#fff"/>
    <path d="M159.52,304.5L144.54,304.5L142.11,305.9L144.54,307.29L159.52,307.29L161.94,305.9L159.52,304.5Z" fill="#fff" opacity="0.07"/>
    <path d="M76.99,274.37L62.01,274.37L59.58,275.76L62.01,277.15L76.99,277.15L79.41,275.76L76.99,274.37Z" fill="#fff" opacity="0.07"/>
    <path d="M103.22,289.62L88.24,289.62L85.81,291.01L88.24,292.41L103.22,292.41L105.64,291.01L103.22,289.62Z" fill="#fff" opacity="0.07"/>
    <path d="M170.38,328.51L155.41,328.51L152.98,329.9L155.41,331.29L170.38,331.29L172.8,329.9L170.38,328.51Z" fill="#fff" opacity="0.07"/>
    <path d="M144.18,313.15L129.19,313.15L126.77,314.55L129.19,315.94L144.18,315.94L146.59,314.55L144.18,313.15Z" fill="#fff" opacity="0.07"/>
    <path d="M136.18,321.04L125.59,314.92L122.17,314.92L122.18,316.89L132.77,323.01L136.19,323.01L136.18,321.04Z" fill="#fff"/>
    <path d="M155.83,314.3L166.42,308.18L166.43,306.21L163.01,306.21L152.41,312.33L152.41,314.3L155.83,314.3Z" fill="#fff"/>
    <path d="M140.68,305.55L151.27,299.44L151.28,297.46L147.85,297.47L137.26,303.58L137.26,305.55L140.68,305.55Z" fill="#fff" opacity="0.15"/>
    <path d="M140.59,323.09L151.19,316.98L151.2,315L147.78,315.01L137.18,321.12L137.18,323.1L140.59,323.09Z" fill="#fff" opacity="0.15" style="animation: 13.6s linear infinite both a8_o;"/>
    <path d="M125.5,314.38L136.09,308.26L136.1,306.28L132.68,306.29L122.08,312.41L122.08,314.38L125.5,314.38Z" fill="#fff" opacity="1" style="animation: 13.6s linear infinite both a9_o;"/>
    <path d="M129.07,298.84L125.08,296.54L129.07,294.24L133.06,296.54L129.07,298.84Z" fill="#fff"/>
    <path d="M120.55,303.76L116.56,301.46L120.55,299.15L124.54,301.46L120.55,303.76Z" fill="#fff"/>
    <g opacity="0.2">
        <path d="M414.2,20.73L414.2,132.97L472.87,166.84L472.87,54.61L414.2,20.73Z" fill="url(#Gradient-5)" opacity="0.25"/>
        <path d="M531.55,20.74L531.55,132.97L472.87,166.85L472.87,54.62L531.55,20.74Z" fill="url(#Gradient-6)"/>
        <path d="M511.17,8.97L434.58,8.97L414.2,20.74L472.87,54.61L531.55,20.74L511.17,8.97Z" fill="url(#Gradient-7)"/>
    </g>
    <g opacity="0.85">
        <path d="M304.82,48.51L304.82,160.74L363.5,194.62L363.5,82.38L304.82,48.51Z" fill="url(#Gradient-8)"/>
        <path d="M422.17,48.52L422.17,160.75L363.5,194.63L363.5,82.39L422.17,48.52Z" fill="url(#Gradient-9)"/>
        <path d="M363.5,82.39L422.17,48.51L363.5,14.64L304.82,48.51L363.5,82.39Z" fill="#f6f7f8"/>
    </g>
    <path d="M211.9,126.37L211.9,238.6L270.57,272.48L270.57,160.24L211.9,126.37Z" fill="url(#Gradient-10)"/>
    <path d="M329.24,126.38L329.24,238.61L270.57,272.49L270.57,160.25L329.24,126.38Z" fill="url(#Gradient-11)"/>
    <path d="M270.57,160.25L329.24,126.37L270.57,92.5L211.9,126.37L270.57,160.25Z" fill="#f6f7f8"/>
    <path d="M397.74,105.29L397.74,217.52L456.41,251.4L456.41,139.16L397.74,105.29Z" fill="url(#Gradient-12)"/>
    <path d="M515.09,105.3L515.09,217.53L456.41,251.41L456.41,139.17L515.09,105.3Z" fill="url(#Gradient-13)"/>
    <path d="M456.41,139.17L515.09,105.29L456.41,71.42L397.74,105.29L456.41,139.17Z" fill="#f6f7f8"/>
    <ellipse rx="2.86" ry="1.65" fill="#ffd7b3" transform="translate(-38.48,397.26) rotate(-60) translate(324.8,231.96)"/>
    <ellipse rx="2.86" ry="1.65" fill="#70ddf0" transform="translate(-43.62,394.13) rotate(-60) translate(319.52,234.84)"/>
    <ellipse rx="2.86" ry="1.65" fill="#70ddf0" transform="translate(-6.32,378.69) rotate(-60) translate(324.8,194.82)"/>
    <ellipse rx="2.86" ry="1.65" fill="#70ddf0" transform="translate(-11.45,375.56) rotate(-60) translate(319.52,197.7)"/>
    <path d="M385.96,366L463.56,321.2L385.96,276.39L308.35,321.2L385.96,366Z" fill="#263d5d"/>
    <path d="M385.96,331.38L463.56,286.58L385.96,241.78L308.35,286.58L385.96,331.38Z" fill="#f6f7f8"/>
    <path d="M385.96,326.9L459.68,284.34L385.95,241.78L312.23,284.34L385.96,326.9Z" fill="#263d5d" opacity="0.4"/>
    <path d="M385.96,358.27L463.56,313.47L463.56,286.58L385.96,331.39L385.96,358.27Z" fill="#718095"/>
    <path d="M385.96,358.27L308.35,313.47L308.35,286.58L385.96,331.38L385.96,358.27Z" fill="#dfe2e7"/>
    <path d="M394.39,343.75L434.14,320.8C434.616,320.457,435.05,320.061,435.435,319.618C435.82,319.176,436.152,318.69,436.425,318.171C436.698,317.653,436.911,317.104,437.058,316.536C437.205,315.969,437.287,315.386,437.3,314.8L437.3,314.8C437.3,312.48,435.87,311.41,434.14,312.41L394.39,335.36C393.913,335.702,393.478,336.097,393.092,336.54C392.707,336.982,392.374,337.467,392.101,337.986C391.827,338.505,391.615,339.054,391.469,339.622C391.322,340.19,391.242,340.774,391.23,341.36L391.23,341.36C391.23,343.68,392.65,344.75,394.39,343.75Z" fill="#263d5d"/>
    <path d="M385.96,295.43L463.56,250.62L385.96,205.82L308.35,250.62L385.96,295.43Z" fill="#f6f7f8"/>
    <path d="M385.96,290.95L459.68,248.38L385.95,205.82L312.23,248.38L385.96,290.95Z" fill="#263d5d" opacity="0.4"/>
    <path d="M385.96,322.31L463.56,277.51L463.56,250.63L385.96,295.43L385.96,322.31Z" fill="#718095"/>
    <path d="M385.96,322.31L308.35,277.51L308.35,250.62L385.96,295.43L385.96,322.31Z" fill="#dfe2e7"/>
    <path d="M394.39,307.79L434.14,284.79C434.616,284.447,435.05,284.051,435.435,283.608C435.82,283.166,436.152,282.68,436.425,282.161C436.698,281.643,436.911,281.094,437.058,280.526C437.205,279.959,437.287,279.376,437.3,278.79L437.3,278.79C437.3,276.47,435.87,275.4,434.14,276.4L394.39,299.35C393.913,299.692,393.478,300.088,393.093,300.53C392.708,300.972,392.375,301.458,392.102,301.977C391.828,302.496,391.616,303.045,391.469,303.613C391.323,304.181,391.242,304.764,391.23,305.35L391.23,305.35C391.23,307.72,392.65,308.79,394.39,307.79Z" fill="#263d5d"/>
    <path d="M385.96,259.58L463.56,214.78L385.96,169.97L308.35,214.78L385.96,259.58Z" fill="#f6f7f8"/>
    <path d="M385.96,286.47L463.56,241.67L463.56,214.78L385.96,259.59L385.96,286.47Z" fill="#718095"/>
    <path d="M385.96,286.47L308.35,241.67L308.35,214.78L385.96,259.58L385.96,286.47Z" fill="#dfe2e7"/>
    <path d="M394.39,272L434.14,249C434.616,248.657,435.05,248.261,435.435,247.818C435.82,247.376,436.152,246.89,436.425,246.371C436.698,245.853,436.911,245.304,437.058,244.736C437.205,244.169,437.287,243.586,437.3,243L437.3,243C437.3,240.69,435.87,239.61,434.14,240.62L394.39,263.57C393.913,263.912,393.478,264.307,393.092,264.75C392.707,265.192,392.374,265.677,392.101,266.196C391.827,266.715,391.615,267.264,391.469,267.832C391.322,268.4,391.242,268.984,391.23,269.57L391.23,269.57C391.23,271.88,392.65,273,394.39,272Z" fill="#263d5d"/>
    <path d="M380.44,278.32L380.44,278.32C380.95,278.61,381.36,278.32,381.36,277.63L381.36,264.4C381.358,264.228,381.336,264.057,381.294,263.89C381.252,263.723,381.191,263.562,381.111,263.41C381.031,263.257,380.934,263.115,380.821,262.985C380.708,262.856,380.58,262.74,380.44,262.64L380.44,262.64C379.94,262.35,379.52,262.64,379.52,263.33L379.52,276.56C379.523,276.732,379.546,276.903,379.589,277.069C379.631,277.235,379.693,277.396,379.772,277.549C379.852,277.701,379.949,277.843,380.061,277.973C380.174,278.103,380.301,278.219,380.44,278.32Z" fill="#95a0b0"/>
    <path d="M376.66,276.59L376.66,276.59C377.17,276.88,377.58,276.59,377.58,275.9L377.58,262.67C377.578,262.498,377.556,262.327,377.514,262.16C377.472,261.993,377.411,261.832,377.331,261.68C377.251,261.527,377.154,261.385,377.041,261.255C376.928,261.126,376.8,261.01,376.66,260.91L376.66,260.91C376.16,260.62,375.74,260.91,375.74,261.61L375.74,274.84C375.744,275.011,375.767,275.181,375.81,275.346C375.853,275.512,375.915,275.672,375.994,275.823C376.074,275.974,376.171,276.116,376.283,276.245C376.395,276.374,376.521,276.49,376.66,276.59Z" fill="#95a0b0"/>
    <path d="M372.78,274.35L372.78,274.35C373.29,274.65,373.7,274.35,373.7,273.66L373.7,260.43C373.698,260.258,373.676,260.087,373.634,259.92C373.592,259.753,373.531,259.592,373.451,259.44C373.371,259.287,373.274,259.145,373.161,259.015C373.048,258.886,372.92,258.77,372.78,258.67L372.78,258.67C372.27,258.38,371.86,258.67,371.86,259.37L371.86,272.6C371.863,272.771,371.885,272.941,371.928,273.107C371.97,273.273,372.032,273.433,372.111,273.585C372.191,273.736,372.288,273.878,372.401,274.007C372.513,274.136,372.641,274.251,372.78,274.35Z" fill="#95a0b0"/>
    <path d="M380.44,314.27L380.44,314.27C380.95,314.57,381.36,314.27,381.36,313.58L381.36,300.35C381.357,300.178,381.334,300.007,381.291,299.841C381.249,299.675,381.187,299.514,381.108,299.361C381.028,299.209,380.931,299.067,380.819,298.937C380.706,298.807,380.579,298.691,380.44,298.59L380.44,298.59C379.94,298.3,379.52,298.59,379.52,299.29L379.52,312.52C379.524,312.691,379.547,312.861,379.59,313.026C379.633,313.192,379.695,313.352,379.774,313.503C379.854,313.654,379.951,313.796,380.063,313.925C380.175,314.054,380.301,314.17,380.44,314.27Z" fill="#95a0b0"/>
    <path d="M376.66,312.55L376.66,312.55C377.17,312.84,377.58,312.55,377.58,311.85L377.58,298.62C377.577,298.448,377.554,298.277,377.511,298.111C377.469,297.945,377.407,297.784,377.328,297.631C377.248,297.479,377.151,297.337,377.039,297.207C376.926,297.077,376.799,296.961,376.66,296.86L376.66,296.86C376.16,296.57,375.74,296.86,375.74,297.56L375.74,310.79C375.744,310.962,375.768,311.132,375.811,311.298C375.854,311.464,375.916,311.625,375.995,311.777C376.075,311.929,376.171,312.072,376.283,312.202C376.395,312.332,376.522,312.449,376.66,312.55Z" fill="#95a0b0"/>
    <path d="M372.78,310.31L372.78,310.31C373.29,310.6,373.7,310.31,373.7,309.61L373.7,296.38C373.697,296.209,373.675,296.039,373.632,295.873C373.59,295.707,373.528,295.547,373.449,295.395C373.369,295.244,373.272,295.102,373.159,294.973C373.047,294.844,372.919,294.729,372.78,294.63L372.78,294.63C372.27,294.33,371.86,294.63,371.86,295.32L371.86,308.55C371.863,308.722,371.886,308.893,371.929,309.059C371.971,309.225,372.033,309.386,372.112,309.539C372.192,309.691,372.289,309.833,372.401,309.963C372.514,310.093,372.641,310.209,372.78,310.31Z" fill="#95a0b0"/>
    <path d="M380.44,350.23L380.44,350.23C380.95,350.52,381.36,350.23,381.36,349.53L381.36,336.3C381.357,336.129,381.335,335.959,381.292,335.793C381.25,335.627,381.188,335.467,381.109,335.315C381.029,335.164,380.932,335.022,380.819,334.893C380.707,334.764,380.579,334.649,380.44,334.55L380.44,334.55C379.94,334.25,379.52,334.55,379.52,335.24L379.52,348.47C379.523,348.642,379.546,348.813,379.589,348.979C379.631,349.145,379.693,349.306,379.772,349.459C379.852,349.611,379.949,349.753,380.061,349.883C380.174,350.013,380.301,350.129,380.44,350.23Z" fill="#95a0b0"/>
    <path d="M376.66,348.5L376.66,348.5C377.17,348.79,377.58,348.5,377.58,347.8L377.58,334.58C377.578,334.408,377.556,334.237,377.514,334.07C377.472,333.903,377.411,333.742,377.331,333.59C377.251,333.437,377.154,333.295,377.041,333.165C376.928,333.036,376.8,332.92,376.66,332.82L376.66,332.82C376.16,332.53,375.74,332.82,375.74,333.51L375.74,346.74C375.743,346.912,375.766,347.083,375.809,347.249C375.851,347.415,375.913,347.576,375.992,347.729C376.072,347.881,376.169,348.023,376.281,348.153C376.394,348.283,376.521,348.399,376.66,348.5Z" fill="#95a0b0"/>
    <path d="M372.78,346.26L372.78,346.26C373.29,346.55,373.7,346.26,373.7,345.56L373.7,332.34C373.698,332.168,373.676,331.997,373.634,331.83C373.592,331.663,373.531,331.502,373.451,331.35C373.371,331.197,373.274,331.055,373.161,330.925C373.048,330.796,372.92,330.68,372.78,330.58L372.78,330.58C372.27,330.29,371.86,330.58,371.86,331.27L371.86,344.5C371.862,344.672,371.884,344.843,371.926,345.01C371.968,345.177,372.029,345.338,372.109,345.49C372.189,345.643,372.286,345.785,372.399,345.915C372.512,346.044,372.64,346.16,372.78,346.26Z" fill="#95a0b0"/>
    <ellipse rx="2.86" ry="1.65" fill="#ffd7b3" opacity="1" transform="translate(-38.18,545.53) rotate(-60) translate(453.36,305.84)" style="animation: 13.6s linear infinite both a10_o;"/>
    <ellipse rx="2.86" ry="1.65" fill="#70ddf0" opacity="1" transform="translate(-43.32,542.4) rotate(-60) translate(448.08,308.72)" style="animation: 13.6s linear infinite both a11_o;"/>
    <ellipse rx="2.86" ry="1.65" fill="#70ddf0" opacity="1" transform="translate(-6.02,526.96) rotate(-60) translate(453.36,268.69)" style="animation: 13.6s linear infinite both a12_o;"/>
    <ellipse rx="2.86" ry="1.65" fill="#70ddf0" opacity="1" transform="translate(-11.15,523.83) rotate(-60) translate(448.08,271.57)" style="animation: 13.6s linear infinite both a13_o;"/>
    <ellipse rx="2.86" ry="1.65" fill="#70ddf0" opacity="1" transform="translate(22.78,510.34) rotate(-60) translate(453.36,235.44)" style="animation: 13.6s linear infinite both a14_o;"/>
    <ellipse rx="2.86" ry="1.65" fill="#ffd7b3" opacity="1" transform="translate(17.65,507.21) rotate(-60) translate(448.08,238.32)" style="animation: 13.6s linear infinite both a15_o;"/>
    <path d="M385.96,255.1L459.68,212.54L385.95,169.97L312.23,212.54L385.96,255.1Z" fill="#263d5d" opacity="0.4"/>
    <path d="M385.96,223.74L463.56,178.94L385.96,134.13L308.35,178.94L385.96,223.74Z" fill="#f6f7f8"/>
    <path d="M385.96,250.63L463.56,205.82L463.56,178.94L385.96,223.74L385.96,250.63Z" fill="#718095"/>
    <path d="M385.96,250.63L308.35,205.82L308.35,178.94L385.96,223.74L385.96,250.63Z" fill="#dfe2e7"/>
    <path d="M394.39,236.1L434.14,213.15C434.616,212.808,435.051,212.412,435.436,211.969C435.822,211.527,436.154,211.041,436.427,210.523C436.701,210.004,436.913,209.455,437.06,208.887C437.207,208.319,437.287,207.736,437.3,207.15L437.3,207.15C437.3,204.84,435.87,203.76,434.14,204.76L394.39,227.76C393.914,228.102,393.479,228.498,393.094,228.941C392.708,229.383,392.376,229.869,392.103,230.387C391.829,230.906,391.617,231.455,391.47,232.023C391.323,232.591,391.243,233.174,391.23,233.76L391.23,233.76C391.23,236,392.65,237.11,394.39,236.1Z" fill="#263d5d"/>
    <path d="M380.44,242.48L380.44,242.48C380.95,242.77,381.36,242.48,381.36,241.78L381.36,228.55C381.357,228.379,381.335,228.209,381.292,228.043C381.25,227.877,381.188,227.717,381.109,227.565C381.029,227.414,380.932,227.272,380.819,227.143C380.707,227.014,380.579,226.899,380.44,226.8L380.44,226.8C379.94,226.5,379.52,226.8,379.52,227.49L379.52,240.72C379.524,240.892,379.547,241.062,379.59,241.228C379.633,241.395,379.695,241.555,379.774,241.708C379.854,241.86,379.951,242.002,380.063,242.132C380.175,242.262,380.301,242.379,380.44,242.48Z" fill="#95a0b0"/>
    <path d="M376.66,240.75L376.66,240.75C377.17,241.04,377.58,240.75,377.58,240.05L377.58,226.82C377.577,226.649,377.555,226.479,377.512,226.313C377.47,226.147,377.408,225.987,377.329,225.835C377.249,225.684,377.152,225.542,377.039,225.413C376.927,225.284,376.799,225.169,376.66,225.07L376.66,225.07C376.16,224.78,375.74,225.07,375.74,225.76L375.74,239C375.744,239.171,375.767,239.341,375.81,239.506C375.853,239.672,375.915,239.832,375.994,239.983C376.074,240.134,376.171,240.276,376.283,240.405C376.395,240.534,376.521,240.65,376.66,240.75Z" fill="#95a0b0"/>
    <path d="M372.78,238.51L372.78,238.51C373.29,238.8,373.7,238.51,373.7,237.81L373.7,224.58C373.697,224.409,373.675,224.239,373.632,224.073C373.59,223.907,373.528,223.747,373.449,223.595C373.369,223.444,373.272,223.302,373.159,223.173C373.047,223.044,372.919,222.929,372.78,222.83L372.78,222.83C372.27,222.54,371.86,222.83,371.86,223.52L371.86,236.75C371.862,236.922,371.884,237.093,371.926,237.26C371.968,237.427,372.029,237.588,372.109,237.74C372.189,237.893,372.286,238.035,372.399,238.165C372.512,238.294,372.64,238.41,372.78,238.51Z" fill="#95a0b0"/>
    <ellipse rx="2.86" ry="1.65" fill="#70ddf0" opacity="1" transform="translate(53.82,492.41) rotate(-60) translate(453.36,199.59)" style="animation: 13.6s linear infinite both a16_o;"/>
    <ellipse rx="2.86" ry="1.65" fill="#ffd7b3" opacity="1" transform="translate(48.69,489.28) rotate(-60) translate(448.08,202.47)" style="animation: 13.6s linear infinite both a17_o;"/>
    <path d="M178.51,220.83L100.34,175.7C99.957,175.425,99.6073,175.106,99.2981,174.749C98.9888,174.393,98.7221,174.002,98.5032,173.585C98.2843,173.167,98.1148,172.725,97.9981,172.268C97.8814,171.811,97.8183,171.342,97.81,170.87L97.81,55.87C97.81,54.01,98.95,53.15,100.34,53.96L178.51,99.09C178.895,99.3714,179.245,99.6971,179.554,100.06C179.862,100.424,180.127,100.822,180.343,101.247C180.558,101.672,180.723,102.121,180.834,102.585C180.944,103.048,181,103.523,181,104L181,219C181,220.78,179.9,221.64,178.51,220.83Z" fill="url(#Gradient-14)"/>
    <ellipse rx="1.7" ry="2.94" fill="#f965a8" transform="translate(-20.25,63.48) rotate(-30) translate(108.33,69.52)"/>
    <ellipse rx="1.7" ry="2.94" fill="#fed22c" transform="translate(-21.34,67.56) rotate(-30) translate(115.4,73.6)"/>
    <ellipse rx="1.7" ry="2.94" fill="#3ae0c0" transform="translate(-22.43,71.64) rotate(-30) translate(122.47,77.68)"/>
    <path d="M167.72,203.3L159.08,198.3C158.597,197.954,158.157,197.553,157.767,197.105C157.378,196.657,157.042,196.164,156.767,195.638C156.492,195.112,156.279,194.555,156.133,193.98C155.987,193.404,155.909,192.814,155.9,192.22L155.9,192.22C155.9,189.88,157.33,188.8,159.08,189.82L167.72,194.82C168.204,195.165,168.646,195.565,169.037,196.013C169.428,196.461,169.765,196.953,170.041,197.479C170.317,198.006,170.53,198.562,170.677,199.138C170.823,199.714,170.901,200.306,170.91,200.9L170.91,200.9C170.91,203.24,169.48,204.32,167.72,203.3Z" fill="url(#Gradient-15)" opacity="0.8"/>
    <path d="M165.31,197.41L163.91,194.99C163.83,194.85,163.69,194.77,163.61,194.81C163.53,194.85,163.52,195.02,163.61,195.17L164.85,197.32L163.61,198.04C163.52,198.09,163.52,198.25,163.61,198.39C163.618,198.407,163.627,198.423,163.637,198.439C163.647,198.454,163.659,198.469,163.672,198.482C163.684,198.496,163.698,198.509,163.713,198.52C163.728,198.531,163.744,198.541,163.76,198.55C163.771,198.557,163.783,198.563,163.796,198.566C163.809,198.57,163.822,198.572,163.835,198.572C163.848,198.572,163.861,198.57,163.874,198.566C163.887,198.563,163.899,198.557,163.91,198.55L165.31,197.74C165.39,197.71,165.39,197.56,165.31,197.41Z" fill="#4a6dc9"/>
    <path d="M162.85,196L161.45,193.58C161.37,193.44,161.23,193.36,161.15,193.41C161.07,193.46,161.07,193.61,161.15,193.76L162.4,195.92L161.15,196.64C161.07,196.64,161.07,196.84,161.15,196.99C161.16,197.006,161.17,197.021,161.182,197.035C161.193,197.05,161.205,197.064,161.217,197.077C161.23,197.091,161.243,197.103,161.257,197.116C161.271,197.128,161.285,197.139,161.3,197.15C161.36,197.15,161.41,197.15,161.45,197.15L162.85,196.34C162.94,196.3,162.94,196.14,162.85,196Z" fill="#4a6dc9" opacity="0.6"/>
    <g opacity="0.6">
        <g opacity="0.8">
            <path d="M149.53,186.38C149.11,186.15,149.3,185.83,148.88,185.59C148.46,185.35,148.28,185.67,147.88,185.43C147.48,185.19,147.65,184.87,147.24,184.63C146.83,184.39,146.64,184.71,146.24,184.47C145.84,184.23,146.01,183.91,145.59,183.67C145.17,183.43,145,183.75,144.59,183.51C144.18,183.27,144.36,182.96,143.95,182.72C143.54,182.48,143.35,182.79,142.95,182.55C142.55,182.31,142.72,182,142.3,181.76C141.88,181.52,141.7,181.83,141.3,181.59C140.9,181.35,141.07,181.03,140.65,180.79" fill="none" stroke="#4a6dc9" stroke-linecap="round" stroke-miterlimit="10"/>
        </g>
        <g opacity="0.8">
            <path d="M144.65,185.9C144.46,185.79,144.55,185.64,144.35,185.53C144.15,185.42,144.08,185.53,143.89,185.46C143.7,185.39,143.78,185.21,143.6,185.1C143.42,184.99,143.32,185.1,143.13,185.02C142.94,184.94,143.03,184.77,142.83,184.66C142.63,184.55,142.56,184.66,142.37,184.58C142.18,184.5,142.26,184.32,142.07,184.21C141.88,184.1,141.79,184.21,141.6,184.14C141.41,184.07,141.49,183.88,141.3,183.77C141.11,183.66,141.02,183.77,140.83,183.69C140.64,183.61,140.72,183.43,140.52,183.32" fill="none" stroke="#4a6dc9" stroke-linecap="round" stroke-miterlimit="10"/>
        </g>
    </g>
    <g opacity="0.6">
        <g opacity="0.8">
            <path d="M132.67,176.75C132.46,176.63,132.55,176.46,132.34,176.34C132.13,176.22,132.03,176.34,131.81,176.26C131.59,176.18,131.69,175.97,131.48,175.85C131.27,175.73,131.17,175.85,130.96,175.76C130.75,175.67,130.84,175.48,130.63,175.35C130.42,175.22,130.31,175.35,130.1,175.27C129.89,175.19,129.98,174.98,129.76,174.85C129.54,174.72,129.45,174.85,129.23,174.77C129.01,174.69,129.11,174.48,128.89,174.35C128.67,174.22,128.58,174.35,128.36,174.27C128.14,174.19,128.24,173.98,128.02,173.85" fill="none" stroke="#4a6dc9" stroke-linecap="round" stroke-miterlimit="10"/>
        </g>
        <g opacity="0.8">
            <path d="M135.26,180.76C134.93,180.56,135.08,180.31,134.74,180.11C134.4,179.91,134.26,180.18,133.93,179.98C133.6,179.78,133.74,179.54,133.41,179.34C133.08,179.14,132.93,179.41,132.59,179.21C132.25,179.01,132.41,178.76,132.07,178.57C131.73,178.38,131.59,178.63,131.26,178.44C130.93,178.25,131.07,177.99,130.74,177.8C130.41,177.61,130.25,177.86,129.92,177.67C129.59,177.48,129.73,177.22,129.4,177.03C129.07,176.84,128.91,177.09,128.58,176.89C128.25,176.69,128.39,176.45,128.05,176.25" fill="none" stroke="#4a6dc9" stroke-linecap="round" stroke-miterlimit="10"/>
        </g>
    </g>
    <path d="M119,175.05L110.35,170.05C109.873,169.703,109.437,169.303,109.052,168.856C108.667,168.409,108.335,167.919,108.062,167.396C107.79,166.873,107.579,166.32,107.434,165.748C107.289,165.176,107.21,164.59,107.2,164L107.2,164C107.2,161.66,108.63,160.58,110.38,161.6L119.03,166.6C119.512,166.947,119.952,167.348,120.34,167.797C120.729,168.245,121.065,168.737,121.34,169.263C121.615,169.789,121.828,170.346,121.974,170.921C122.121,171.496,122.2,172.086,122.21,172.68L122.21,172.68C122.21,175,120.78,176.06,119,175.05Z" fill="url(#Gradient-16)" opacity="0.8"/>
    <path d="M111.81,166.89L113.21,169.31C113.3,169.45,113.43,169.53,113.52,169.48C113.61,169.43,113.6,169.28,113.52,169.13L112.27,167L113.52,166.28C113.6,166.28,113.6,166.08,113.52,165.93C113.51,165.914,113.499,165.898,113.487,165.883C113.475,165.868,113.463,165.854,113.449,165.841C113.436,165.827,113.422,165.815,113.407,165.803C113.392,165.791,113.376,165.78,113.36,165.77C113.349,165.763,113.337,165.757,113.324,165.754C113.311,165.75,113.298,165.748,113.285,165.748C113.272,165.748,113.259,165.75,113.246,165.754C113.233,165.757,113.221,165.763,113.21,165.77L111.81,166.57C111.73,166.58,111.73,166.74,111.81,166.89Z" fill="#4a6dc9"/>
    <path d="M114.27,168.3L115.67,170.72C115.75,170.87,115.89,170.95,115.97,170.9C116.05,170.85,116.05,170.69,115.97,170.55L114.73,168.39L115.97,167.67C116.05,167.67,116.05,167.47,115.97,167.32C115.961,167.304,115.951,167.288,115.94,167.274C115.929,167.259,115.917,167.245,115.904,167.231C115.892,167.218,115.878,167.205,115.864,167.193C115.85,167.181,115.835,167.17,115.82,167.16C115.808,167.154,115.796,167.15,115.784,167.147C115.771,167.144,115.758,167.143,115.745,167.143C115.732,167.143,115.719,167.144,115.706,167.147C115.694,167.15,115.682,167.154,115.67,167.16L114.27,167.97C114.19,168,114.19,168.16,114.27,168.3Z" fill="#4a6dc9" opacity="0.6"/>
    <path d="M138.14,154.07C128.65,148.59,120.93,135.22,120.93,124.26C120.93,113.3,128.65,108.84,138.14,114.32C147.63,119.8,155.35,133.18,155.35,144.14C155.35,155.1,147.63,159.55,138.14,154.07ZM138.14,115.75C129.33,110.67,122.14,114.75,122.14,124.97C122.14,135.19,129.31,147.56,138.14,152.64C146.97,157.72,154.14,153.64,154.14,143.42C154.14,133.2,147,120.84,138.14,115.75Z" fill="#fff" style="animation: 13.6s linear infinite both a18_f;"/>
    <g opacity="1" transform="translate(138.14,134.2) translate(-5.46,-13.06)" style="animation: 13.6s linear infinite both a19_o;">
        <path d="M136.4,143.1L132.68,140.96L132.68,121.14L136.4,123.28L136.4,143.1Z" fill="#fff" transform="translate(-132.68,-121.14)"/>
        <path d="M143.6,147.26L139.88,145.11L139.88,125.29L143.6,127.44L143.6,147.26Z" fill="#fff" transform="translate(-132.68,-121.14)"/>
    </g>
    <path d="M173.31,187.51L104.01,147.5L104.01,79.07L173.31,119.08L173.31,187.51Z" fill="url(#Gradient-17)" opacity="0.6"/>
    <path d="M57.8,105.7L45.59,84.83L45.59,112.46L57.8,105.7Z" fill="#263d5d" opacity="0" transform="translate(95.1265,49.821) scale(0.84,0.84)" style="animation: 13.6s linear infinite both a20_o;"/>
    <g transform="translate(285.76,340.246) translate(-13.76,-9.4425)">
        <g transform="translate(13.76,9.4425) translate(-13.76,-9.4425)">
            <path d="M286.73,299.12C281.36,296.02,272.65,296.02,267.28,299.12C266.28,299.69,263.54,299.65,263.47,300.49C263.17,304.25,262.9,307.82,267.28,310.35C272.65,313.45,281.36,313.45,286.73,310.35C291.1,307.83,290.73,302.14,290.73,301.35C290.73,300.56,287.74,299.7,286.73,299.12Z" fill="url(#Gradient-18)" transform="translate(-263.25,-293.79)"/>
            <ellipse rx="13.76" ry="7.94" fill="url(#Gradient-19)" transform="translate(0,-29.47) translate(13.76,37.41)"/>
            <g opacity="0.5" transform="translate(0,-29.47)">
                <path d="M282.2,302.94L280.35,304L275.45,301.15L274.64,300.66L273.76,300.12C273.766,300.18,273.77,300.24,273.773,300.3C273.776,300.36,273.777,300.42,273.777,300.48C273.777,300.54,273.776,300.6,273.773,300.66C273.77,300.72,273.766,300.78,273.76,300.84L273.57,301.84L271.57,301.72L272.14,298.8L273.66,297.92Z" fill="#5b4a14" transform="translate(-263.25,-264.32)"/>
            </g>
            <path d="M282.18,302.55L280.33,303.61L275.28,300.7L274.47,300.21L273.59,299.67C273.594,299.729,273.597,299.788,273.599,299.847C273.601,299.907,273.602,299.966,273.602,300.025C273.602,300.084,273.601,300.143,273.599,300.203C273.597,300.262,273.594,300.321,273.59,300.38L273.39,301.43L271.39,301.3L271.96,298.38L273.48,297.51Z" fill="#f6f7f8" transform="translate(-263.25,-293.79)"/>
        </g>
    </g>
    <g opacity="0" transform="translate(285.76,313.246) translate(-13.76,-9.4425)" style="animation: 13.6s linear infinite both a21_t, 13.6s linear infinite both a21_o;">
        <g transform="translate(13.76,9.4425) translate(-13.76,-9.4425)">
            <path d="M286.73,299.12C281.36,296.02,272.65,296.02,267.28,299.12C266.28,299.69,263.54,299.65,263.47,300.49C263.17,304.25,262.9,307.82,267.28,310.35C272.65,313.45,281.36,313.45,286.73,310.35C291.1,307.83,290.73,302.14,290.73,301.35C290.73,300.56,287.74,299.7,286.73,299.12Z" fill="url(#Gradient-18)" transform="translate(-263.25,-293.79)"/>
            <ellipse rx="13.76" ry="7.94" fill="url(#Gradient-19)" transform="translate(0,-29.47) translate(13.76,37.41)"/>
            <g opacity="0.5" transform="translate(0,-29.47)">
                <path d="M282.2,302.94L280.35,304L275.45,301.15L274.64,300.66L273.76,300.12C273.766,300.18,273.77,300.24,273.773,300.3C273.776,300.36,273.777,300.42,273.777,300.48C273.777,300.54,273.776,300.6,273.773,300.66C273.77,300.72,273.766,300.78,273.76,300.84L273.57,301.84L271.57,301.72L272.14,298.8L273.66,297.92Z" fill="#5b4a14" transform="translate(-263.25,-264.32)"/>
            </g>
            <path d="M282.18,302.55L280.33,303.61L275.28,300.7L274.47,300.21L273.59,299.67C273.594,299.729,273.597,299.788,273.599,299.847C273.601,299.907,273.602,299.966,273.602,300.025C273.602,300.084,273.601,300.143,273.599,300.203C273.597,300.262,273.594,300.321,273.59,300.38L273.39,301.43L271.39,301.3L271.96,298.38L273.48,297.51Z" fill="#f6f7f8" transform="translate(-263.25,-293.79)"/>
        </g>
    </g>
    <g opacity="0" transform="translate(285.76,304.246) translate(-13.76,-9.4425)" style="animation: 13.6s linear infinite both a22_t, 13.6s linear infinite both a22_o;">
        <g transform="translate(13.76,9.4425) translate(-13.76,-9.4425)">
            <path d="M286.73,299.12C281.36,296.02,272.65,296.02,267.28,299.12C266.28,299.69,263.54,299.65,263.47,300.49C263.17,304.25,262.9,307.82,267.28,310.35C272.65,313.45,281.36,313.45,286.73,310.35C291.1,307.83,290.73,302.14,290.73,301.35C290.73,300.56,287.74,299.7,286.73,299.12Z" fill="url(#Gradient-18)" transform="translate(-263.25,-293.79)"/>
            <ellipse rx="13.76" ry="7.94" fill="url(#Gradient-19)" transform="translate(0,-29.47) translate(13.76,37.41)"/>
            <g opacity="0.5" transform="translate(0,-29.47)">
                <path d="M282.2,302.94L280.35,304L275.45,301.15L274.64,300.66L273.76,300.12C273.766,300.18,273.77,300.24,273.773,300.3C273.776,300.36,273.777,300.42,273.777,300.48C273.777,300.54,273.776,300.6,273.773,300.66C273.77,300.72,273.766,300.78,273.76,300.84L273.57,301.84L271.57,301.72L272.14,298.8L273.66,297.92Z" fill="#5b4a14" transform="translate(-263.25,-264.32)"/>
            </g>
            <path d="M282.18,302.55L280.33,303.61L275.28,300.7L274.47,300.21L273.59,299.67C273.594,299.729,273.597,299.788,273.599,299.847C273.601,299.907,273.602,299.966,273.602,300.025C273.602,300.084,273.601,300.143,273.599,300.203C273.597,300.262,273.594,300.321,273.59,300.38L273.39,301.43L271.39,301.3L271.96,298.38L273.48,297.51Z" fill="#f6f7f8" transform="translate(-263.25,-293.79)"/>
        </g>
    </g>
    <g opacity="0" transform="translate(285.76,299.246) translate(-13.76,-9.4425)" style="animation: 13.6s linear infinite both a23_t, 13.6s linear infinite both a23_o;">
        <g transform="translate(13.76,9.4425) translate(-13.76,-9.4425)">
            <path d="M286.73,299.12C281.36,296.02,272.65,296.02,267.28,299.12C266.28,299.69,263.54,299.65,263.47,300.49C263.17,304.25,262.9,307.82,267.28,310.35C272.65,313.45,281.36,313.45,286.73,310.35C291.1,307.83,290.73,302.14,290.73,301.35C290.73,300.56,287.74,299.7,286.73,299.12Z" fill="url(#Gradient-18)" transform="translate(-263.25,-293.79)"/>
            <ellipse rx="13.76" ry="7.94" fill="url(#Gradient-19)" transform="translate(0,-29.47) translate(13.76,37.41)"/>
            <g opacity="0.5" transform="translate(0,-29.47)">
                <path d="M282.2,302.94L280.35,304L275.45,301.15L274.64,300.66L273.76,300.12C273.766,300.18,273.77,300.24,273.773,300.3C273.776,300.36,273.777,300.42,273.777,300.48C273.777,300.54,273.776,300.6,273.773,300.66C273.77,300.72,273.766,300.78,273.76,300.84L273.57,301.84L271.57,301.72L272.14,298.8L273.66,297.92Z" fill="#5b4a14" transform="translate(-263.25,-264.32)"/>
            </g>
            <path d="M282.18,302.55L280.33,303.61L275.28,300.7L274.47,300.21L273.59,299.67C273.594,299.729,273.597,299.788,273.599,299.847C273.601,299.907,273.602,299.966,273.602,300.025C273.602,300.084,273.601,300.143,273.599,300.203C273.597,300.262,273.594,300.321,273.59,300.38L273.39,301.43L271.39,301.3L271.96,298.38L273.48,297.51Z" fill="#f6f7f8" transform="translate(-263.25,-293.79)"/>
        </g>
    </g>
    <g opacity="0" transform="translate(285.76,293.333) translate(-13.76,-9.4425)" style="animation: 13.6s linear infinite both a24_t, 13.6s linear infinite both a24_o;">
        <g transform="translate(13.76,9.4425) translate(-13.76,-9.4425)">
            <path d="M286.73,299.12C281.36,296.02,272.65,296.02,267.28,299.12C266.28,299.69,263.54,299.65,263.47,300.49C263.17,304.25,262.9,307.82,267.28,310.35C272.65,313.45,281.36,313.45,286.73,310.35C291.1,307.83,290.73,302.14,290.73,301.35C290.73,300.56,287.74,299.7,286.73,299.12Z" fill="url(#Gradient-18)" transform="translate(-263.25,-293.79)"/>
            <ellipse rx="13.76" ry="7.94" fill="url(#Gradient-19)" transform="translate(0,-29.47) translate(13.76,37.41)"/>
            <g opacity="0.5" transform="translate(0,-29.47)">
                <path d="M282.2,302.94L280.35,304L275.45,301.15L274.64,300.66L273.76,300.12C273.766,300.18,273.77,300.24,273.773,300.3C273.776,300.36,273.777,300.42,273.777,300.48C273.777,300.54,273.776,300.6,273.773,300.66C273.77,300.72,273.766,300.78,273.76,300.84L273.57,301.84L271.57,301.72L272.14,298.8L273.66,297.92Z" fill="#5b4a14" transform="translate(-263.25,-264.32)"/>
            </g>
            <path d="M282.18,302.55L280.33,303.61L275.28,300.7L274.47,300.21L273.59,299.67C273.594,299.729,273.597,299.788,273.599,299.847C273.601,299.907,273.602,299.966,273.602,300.025C273.602,300.084,273.601,300.143,273.599,300.203C273.597,300.262,273.594,300.321,273.59,300.38L273.39,301.43L271.39,301.3L271.96,298.38L273.48,297.51Z" fill="#f6f7f8" transform="translate(-263.25,-293.79)"/>
        </g>
    </g>
</svg>
