<?xml version="1.0" encoding="utf-8"?>
<svg id="ICON" xmlns="http://www.w3.org/2000/svg" viewBox="0 0 167.35 127.46"><title>firewall_managed</title><path d="M145.43,93.53a2,2,0,0,1-.74-3.86c21.29-8.38,18.25-32.73,18.22-33-3.08-25-29.15-43.83-37.61-49.32C123,19.22,110,35.18,109.42,35.92c-10.19,11.8-14.89,22.45-14,31.68a22.36,22.36,0,0,0,8.79,15.46c7.27,5.73,16.6,6.47,16.69,6.47a2,2,0,1,1-.29,4c-.43,0-10.65-.83-18.87-7.32A26.22,26.22,0,0,1,91.43,68c-1-10.36,4-22,14.93-34.63.11-.15,15.3-18.85,15.3-29.35V.56l3,1.7a114.77,114.77,0,0,1,19.56,14.82c13.2,12.39,21,25.91,22.67,39.1,0,.25,3.45,27.7-20.72,37.21A2.1,2.1,0,0,1,145.43,93.53Z" transform="translate(0.28 -0.56)" style="fill:#001b41"/><path d="M122.13,77.49a2,2,0,0,0-1.07-2.62c-.09,0-8.47-3.64-8.86-11.3V63.3c-.16-3.08-.37-7.2,3.51-11.79,2.32,3.23,6.11,7.28,10.31,6.7a6.48,6.48,0,0,0,4.37-3c3.18-4.49,4.49-12.8,3.49-21.11,7.1,6.95,19,22.78,5.13,41.47a2,2,0,1,0,3.21,2.38c7.58-10.23,9.22-21.29,4.75-32-3.5-8.4-9.77-14.48-13.19-17.35a2.72,2.72,0,0,0-4.41,2.63c1.91,9.31.27,18.12-2.24,21.67a3,3,0,0,1-1.66,1.39c-1.82.25-4.74-2.28-7.33-6.28a2.68,2.68,0,0,0-2-1.23,2.65,2.65,0,0,0-2.2.79c-6.23,6.31-5.92,12.36-5.73,16v.26c.52,10.21,10.87,14.62,11.31,14.8a2.06,2.06,0,0,0,.76.15A2,2,0,0,0,122.13,77.49Z" transform="translate(0.28 -0.56)" style="fill:#0b9dcc"/><path d="M85.25,128H-.28V103.71H85.25ZM3.72,124H81.25V107.71H3.72ZM74.73,57a2,2,0,0,0-2-2h-69V38.65H83.25a2,2,0,0,0,0-4H-.28V59h73A2,2,0,0,0,74.73,57ZM89,91.35a2,2,0,0,0-2-2H48.72V73H74.43a2,2,0,0,0,0-4H44.72V93.35H87A2,2,0,0,0,89,91.35ZM130.61,128H92.11V103.71h38.5Zm-34.5-4h30.5V107.71H96.11ZM38.21,93.49H-.28V69.18H38.21Zm-34.49-4H34.21V73.18H3.72Z" transform="translate(0.28 -0.56)" style="fill:#001b41"/></svg>