<?xml version="1.0" encoding="utf-8"?>
<svg id="ICON" xmlns="http://www.w3.org/2000/svg" viewBox="0 0 128 128"><title>hand-certificate</title><g id="hand-certificate"><path d="M63,42a2,2,0,0,1-1.41-.59l-8-8a2,2,0,0,1,2.82-2.82L62.8,37l9.32-12.18a2,2,0,1,1,3.17,2.42l-10.7,14a2,2,0,0,1-1.46.79ZM86,32A22,22,0,1,0,64,54,22,22,0,0,0,86,32Zm-4,0A18,18,0,1,1,64,14,18,18,0,0,1,82,32ZM32.81,28a9.94,9.94,0,0,1,3.26-10l2.48-2.09a6.16,6.16,0,0,0,1.69-2.32l1.23-3A9.92,9.92,0,0,1,50,4.34l3.24-.24A6,6,0,0,0,56,3.22L58.72,1.5a10,10,0,0,1,10.56,0h0L72,3.22a6,6,0,0,0,2.72.88L78,4.34a9.92,9.92,0,0,1,8.53,6.2l1.23,3a6.16,6.16,0,0,0,1.69,2.32L91.93,18a9.94,9.94,0,0,1,3.26,10l-.78,3.16a6.06,6.06,0,0,0,0,2.87l.78,3.15a10,10,0,0,1-3.26,10l-2.48,2.1a6,6,0,0,0-1.69,2.32l-1.22,3A10,10,0,0,1,78,60.83l-3.24.23A6,6,0,0,0,72,62l-2.76,1.72a10,10,0,0,1-10.54,0L56,62a6,6,0,0,0-2.73-.89L50,60.83a10,10,0,0,1-8.54-6.2l-1.22-3a6.08,6.08,0,0,0-1.69-2.32l-2.48-2.1a9.94,9.94,0,0,1-3.26-10L33.59,34a6.06,6.06,0,0,0,0-2.87ZM36.69,27l.78,3.15a10,10,0,0,1,0,4.79l-.78,3.15a6,6,0,0,0,2,6l2.48,2.09a10,10,0,0,1,2.81,3.88l1.23,3a6,6,0,0,0,5.12,3.72l3.24.23a10.07,10.07,0,0,1,4.55,1.48l2.76,1.72a6,6,0,0,0,6.32,0l2.76-1.72a9.94,9.94,0,0,1,4.55-1.47l3.24-.24a6,6,0,0,0,5.12-3.73l1.23-3a10.1,10.1,0,0,1,2.81-3.87l2.48-2.09a6,6,0,0,0,2-6L90.53,35a9.91,9.91,0,0,1,0-4.78L91.31,27a6,6,0,0,0-2-6l-2.48-2.1a10,10,0,0,1-2.81-3.86l-1.23-3a6,6,0,0,0-5.12-3.72l-3.24-.24a10.14,10.14,0,0,1-4.54-1.47L67.17,4.9a6,6,0,0,0-6.34,0L58.08,6.62a10.22,10.22,0,0,1-4.55,1.47l-3.24.24a6,6,0,0,0-5.12,3.72l-1.23,3a9.89,9.89,0,0,1-2.81,3.86L38.65,21A6,6,0,0,0,36.69,27Z" style="fill:#0b9dcc"/><path d="M14,114a2,2,0,1,1-2-2A2,2,0,0,1,14,114Zm110-13.07-39.66,22.9a2,2,0,0,1-1,.26h-.13l-57.21-4V122a6,6,0,0,1-6,6H6a6,6,0,0,1-6-6V88a6,6,0,0,1,6-6H20a6,6,0,0,1,5.91,5A40.47,40.47,0,0,1,40,84c7.38,0,14.61,3.14,16.45,4H82a8,8,0,0,1,0,16H56a2,2,0,0,1,0-4H82a4,4,0,0,0,0-8H56a1.94,1.94,0,0,1-.89-.21C55,91.75,47.41,88,40,88c-5.76,0-11.63,2.26-14,3.29v24.84l56.87,3.93L122,97.46a4,4,0,0,0-4-6.92L95,103.73a2,2,0,1,1-2-3.46l23-13.2a8,8,0,0,1,8,13.86ZM22,88a2,2,0,0,0-2-2H6a2,2,0,0,0-2,2v34a2,2,0,0,0,2,2H20a2,2,0,0,0,2-2Z" style="fill:#001b41"/></g></svg>