<?xml version="1.0" encoding="utf-8"?>
<!-- Generator: Adobe Illustrator 23.0.1, SVG Export Plug-In . SVG Version: 6.00 Build 0)  -->
<svg version="1.1" id="Layer_1" xmlns="http://www.w3.org/2000/svg" xmlns:xlink="http://www.w3.org/1999/xlink" x="0px" y="0px"
	 viewBox="0 0 150.04 150.59" style="enable-background:new 0 0 150.04 150.59;" xml:space="preserve">
<style type="text/css">
	.st0{fill-rule:evenodd;clip-rule:evenodd;fill:#0D9F16;}
	.st1{fill:#0D9F16;}
	.st2{fill-rule:evenodd;clip-rule:evenodd;fill:#FCFCFC;}
	.st3{fill-rule:evenodd;clip-rule:evenodd;fill:#FDFDFD;}
	.st4{fill:#230CCD;}
	.st5{fill:#FFC515;}
	.st6{fill-rule:evenodd;clip-rule:evenodd;fill:#230CCD;}
	.st7{fill-rule:evenodd;clip-rule:evenodd;fill:#FFC515;}
	.st8{fill-rule:evenodd;clip-rule:evenodd;}
</style>
<g>
	<path d="M74.98,6.5c37.77,0,68.5,30.73,68.5,68.5s-30.73,68.5-68.5,68.5S6.48,112.77,6.48,75S37.2,6.5,74.98,6.5 M74.98,1.5
		C34.38,1.5,1.48,34.41,1.48,75s32.91,73.5,73.5,73.5s73.5-32.91,73.5-73.5S115.57,1.5,74.98,1.5L74.98,1.5z"/>
</g>
<g>
	<circle class="st0" cx="339.85" cy="30.85" r="4.92"/>
	<circle class="st0" cx="387.65" cy="42.1" r="6.33"/>
	<path class="st1" d="M401,4.34c0,19.48-15.8,35.29-35.28,35.29c-19.49,0-35.28-15.81-35.28-35.29s15.79-35.28,35.28-35.28
		C385.2-30.94,401-15.14,401,4.34z"/>
	<path d="M395.52-1.14c0,19.48-15.8,35.29-35.28,35.29c-19.49,0-35.28-15.81-35.28-35.29s15.79-35.28,35.28-35.28
		C379.72-36.43,395.52-20.62,395.52-1.14z"/>
	<g>
		<path class="st2" d="M380.65-6.05c-2.3-9.54-10.51-16.05-20.43-16.17c-1.31,0.02-2.68,0.13-4.03,0.41
			C342.35-19,335.17-3.65,341.92,8.74c0.17,0.33,0.19,0.6,0.09,0.94c-0.9,3.27-1.79,6.53-2.68,9.79c-0.14,0.54-0.14,0.54,0.39,0.4
			c3.39-0.89,6.77-1.77,10.15-2.67c0.28-0.08,0.5-0.04,0.76,0.09c4.36,2.23,8.95,2.88,13.76,1.95
			C375.89,17.01,383.39,5.32,380.65-6.05z M363.15,15.88c-0.95,0.16-1.9,0.25-2.4,0.24c-3.68-0.01-6.68-0.84-9.44-2.51
			c-0.35-0.21-0.66-0.27-1.07-0.16c-1.86,0.51-3.72,0.97-5.58,1.47c-0.39,0.12-0.43,0.03-0.33-0.32c0.49-1.77,0.96-3.52,1.46-5.27
			c0.14-0.49,0.09-0.87-0.19-1.31c-3.82-6.14-3.66-13.78,0.62-19.46c4.44-5.91,10.48-8.33,17.7-6.79
			c7.12,1.5,11.65,6.09,13.32,13.17C379.51,4.62,372.94,14.25,363.15,15.88z"/>
		<path class="st3" d="M365.7,8.76c-0.75,0.03-1.46-0.14-2.17-0.33c-4.81-1.38-8.41-4.39-11.31-8.35c-1.1-1.49-2.11-3.03-2.45-4.88
			c-0.4-2.23,0.24-4.11,1.89-5.66c0.53-0.48,2.13-0.7,2.78-0.39c0.24,0.12,0.39,0.33,0.49,0.56c0.61,1.45,1.21,2.87,1.8,4.32
			c0.11,0.28,0.06,0.55-0.06,0.82c-0.31,0.66-0.8,1.2-1.29,1.72c-0.38,0.39-0.39,0.74-0.12,1.2c1.7,2.83,4.05,4.88,7.12,6.12
			c0.46,0.18,0.8,0.12,1.11-0.27c0.51-0.63,1.05-1.26,1.54-1.92c0.33-0.46,0.71-0.52,1.18-0.31c1.02,0.46,2.03,0.94,3.04,1.42
			c0.23,0.1,0.45,0.21,0.68,0.32c1.03,0.51,1.02,0.52,0.93,1.66c-0.17,2.22-1.83,3.31-3.81,3.86C366.61,8.77,366.15,8.78,365.7,8.76
			z"/>
	</g>
	<circle class="st0" cx="345.47" cy="37.88" r="2.11"/>
</g>
<g>
	<g>
		<path class="st4" d="M-245.26-58.39V-69.1h4.17v-2.08v-3.12h-5.21v-6.25l-5.21,1.04c0,0,0,10.41,0,20.83
			c0,10.41,12.5,8.33,12.5,8.33v-4.17c-1.87,0-3.31-0.42-4.34-0.88C-244.53-55.93-245.26-57.1-245.26-58.39z"/>
		<path class="st4" d="M-245.27-93.58c-15.12,0-27.38,12.26-27.38,27.38c0,15.12,27.38,63.57,27.38,63.57s27.39-48.44,27.39-63.57
			C-217.88-81.32-230.15-93.58-245.27-93.58z M-245.26-47.28c-9.99,0-18.09-8.1-18.09-18.09c0-9.99,8.1-18.09,18.09-18.09
			s18.09,8.1,18.09,18.09C-227.17-55.38-235.27-47.28-245.26-47.28z"/>
	</g>
	<g>
		<path d="M-248.79-64.17v-10.72h4.17v-2.08v-3.12h-5.21v-6.25l-5.21,1.04c0,0,0,10.41,0,20.83c0,10.41,12.5,8.33,12.5,8.33v-4.17
			c-1.87,0-3.31-0.42-4.34-0.88C-248.05-61.71-248.79-62.89-248.79-64.17z"/>
		<path d="M-248.79-99.37c-15.12,0-27.38,12.26-27.38,27.38c0,15.12,27.38,63.57,27.38,63.57s27.39-48.44,27.39-63.57
			C-221.4-87.11-233.67-99.37-248.79-99.37z M-248.79-53.07c-9.99,0-18.09-8.1-18.09-18.09s8.1-18.09,18.09-18.09
			s18.09,8.1,18.09,18.09S-238.79-53.07-248.79-53.07z"/>
	</g>
</g>
<g>
	<g>
		<path class="st5" d="M74.12,74.82c0.98-0.19,1.79-1.22,2.68-1.87c0-0.33-0.01-0.65-0.01-0.97c-0.9-0.63-1.75-1.68-2.72-1.8
			c-1.48-0.2-2.43,0.89-2.36,2.46C71.78,74.09,72.76,75.08,74.12,74.82z"/>
		<path class="st5" d="M81.57,72.6c0.06,1.45,1.04,2.47,2.42,2.21c0.99-0.19,1.83-1.21,3.37-2.32c-1.55-1.12-2.39-2.2-3.38-2.34
			C82.53,69.96,81.51,71.02,81.57,72.6z"/>
		<path class="st5" d="M64.37,70.11c-1.54-0.13-2.69,0.85-2.55,2.33c0.1,0.98,1.14,1.87,2.22,3.48c1.17-1.52,2.2-2.31,2.44-3.3
			C66.82,71.23,65.77,70.23,64.37,70.11z"/>
		<path class="st5" d="M102.59,72.55c-0.43-2.04-1.09-3.98-1.91-5.8c0.02,0.09,0.05,0.18,0.07,0.28c1.26,6.05,0.53,11.89-2.26,17.4
			c-0.46,0.91-1.54,1.89-2.49,2.09c-5.03,1.07-10.12,1.9-15.18,2.8c-0.35,0.06-0.86,0.15-1.07-0.03c-2.64-2.31-5.79-0.97-8.7-1.21
			c-1.63-0.14-2.7,0.85-2.73,2.52c-0.03,1.67,1.03,2.57,2.66,2.62c2.06,0.07,4.13,0.02,6.19,0.01c0.29,0,0.69,0.01,0.85-0.16
			c2.62-2.65,6.18-1.74,9.29-2.46c2.64-0.61,5.32-1.03,8.41-1.61c-1.22,1.58-2.52,2.98-3.9,4.21c2.01-0.37,4.02-0.74,6.02-1.16
			c0.95-0.2,2.03-1.18,2.49-2.09C103.12,84.44,103.86,78.59,102.59,72.55z"/>
		<path class="st5" d="M65.07,98.4c-0.61-0.29-1.23-0.62-1.87-0.9c-6.4-2.82-11.25-7.82-13.97-13.77
			c1.67,7.74,6.72,14.57,14.08,18.44C64.05,101.05,64.63,99.8,65.07,98.4z"/>
		<path class="st5" d="M87.28,96.4c-1.36,0.73-2.8,1.34-4.33,1.78c-3.34,0.95-5.9,2.4-8.34,4.99c-2.61,2.76-5.9,3.99-9.42,4.48
			c-1.35,2.06-3.25,3.68-5.88,4.91c1.14,0.52,1.57,0.88,2,0.89c5.59,0.13,11.15-0.54,15.14-4.76c2.44-2.59,5.01-4.04,8.34-4.99
			c5.12-1.46,9.24-4.61,12.77-9.18c-3.1,0.58-5.78,1-8.41,1.61C88.54,96.27,87.91,96.34,87.28,96.4z"/>
	</g>
	<g>
		<path class="st4" d="M36.27,90.03c-0.81-0.23-1.45-0.65-1.94-1.19c0.18,1.41,0.35,2.82,0.52,4.23c0.26,2.07,1.26,3.77,3.26,4.33
			c3.35,0.94,6.58-0.04,9.96-0.77c-1.29-2.37-2.24-4.75-2.94-7.13C42.15,90.18,39.25,90.87,36.27,90.03z"/>
		<path class="st4" d="M116.53,74.24c-0.46,3.72-0.92,7.45-1.39,11.17c-0.44,3.46-2.55,5.26-6.03,4.97
			c-0.86-0.07-1.73-0.18-2.61-0.29c-0.69,2.21-1.61,4.46-2.8,6.72c2.63,0.35,4.93,0.75,7.25,0.94c3.47,0.29,5.59-1.51,6.03-4.97
			c0.55-4.38,1.11-8.76,1.64-13.15C118.91,77.2,118.17,75.32,116.53,74.24z"/>
	</g>
	<g>
		<path d="M95.72,88.99c-3.53,4.57-7.65,7.72-12.77,9.18c-3.34,0.95-5.9,2.4-8.34,4.99c-3.99,4.22-9.55,4.89-15.14,4.76
			c-0.43-0.01-0.86-0.37-2-0.89c4.04-1.9,6.38-4.68,7.61-8.63c-0.61-0.29-1.23-0.62-1.87-0.9c-11.88-5.24-18.48-17.91-15.86-30.43
			c2.69-12.83,13.67-21.8,26.69-21.81c13.03-0.01,24.05,8.94,26.72,21.75c1.26,6.05,0.53,11.89-2.26,17.4
			c-0.46,0.91-1.54,1.89-2.49,2.09c-5.03,1.07-10.12,1.9-15.18,2.8c-0.35,0.06-0.86,0.15-1.07-0.03c-2.64-2.31-5.79-0.97-8.7-1.21
			c-1.63-0.14-2.7,0.85-2.73,2.52c-0.03,1.67,1.03,2.57,2.66,2.62c2.06,0.07,4.13,0.02,6.19,0.01c0.29,0,0.69,0.01,0.85-0.16
			c2.62-2.65,6.18-1.74,9.29-2.46C89.94,89.99,92.62,89.58,95.72,88.99z M64.04,75.92c1.17-1.52,2.21-2.31,2.44-3.3
			c0.34-1.4-0.72-2.39-2.11-2.51c-1.54-0.13-2.69,0.85-2.55,2.33C61.92,73.42,62.96,74.31,64.04,75.92z M87.37,72.5
			c-1.55-1.12-2.39-2.2-3.38-2.34c-1.46-0.2-2.48,0.86-2.42,2.44c0.06,1.45,1.04,2.47,2.42,2.21C84.99,74.63,85.82,73.61,87.37,72.5
			z M76.8,72.95c0-0.32-0.01-0.65-0.01-0.97c-0.9-0.63-1.75-1.68-2.72-1.8c-1.48-0.2-2.43,0.89-2.36,2.46
			c0.07,1.46,1.05,2.45,2.42,2.19C75.1,74.63,75.91,73.6,76.8,72.95z"/>
		<path d="M101.86,89.44c9.3-17.62,2.44-34.23-8.33-42.33c-11.97-9-28.37-8.7-39.92,0.78c-10.95,8.99-16,25.49-7.37,41.38
			c-3.38,0.73-6.62,1.71-9.96,0.77c-2.01-0.56-3-2.27-3.26-4.33c-0.57-4.53-1.15-9.06-1.68-13.59c-0.4-3.36,1.34-5.75,4.77-6.19
			c1.78-0.23,2.56-0.85,3.05-2.65c4.31-15.87,18.54-26.72,34.88-26.74c16.34-0.01,30.61,10.83,34.94,26.67
			c0.47,1.72,1.12,2.5,2.99,2.72c3.56,0.42,5.25,2.83,4.83,6.34c-0.53,4.38-1.09,8.77-1.64,13.15c-0.44,3.46-2.55,5.26-6.03,4.97
			C106.79,90.19,104.49,89.79,101.86,89.44z"/>
	</g>
</g>
<g>
	<g>
		<g>
			<path class="st6" d="M-245.34,68.91c0.52,0.91,0.46,1.91,0.14,2.95c-0.79,2.51-2.29,4.6-3.83,6.71
				c-1.18,1.56-1.06,2.81,0.13,4.34c0.67,0.85,1.37,1.64,2.07,2.43c-0.07-0.74,0.18-1.47,0.8-2.29c1.54-2.1,3.04-4.2,3.83-6.71
				c0.32-1.04,0.38-2.04-0.14-2.95c-2.76-4.86-5.53-9.7-8.33-14.52c-0.29-0.49-0.68-0.9-1.13-1.24
				C-249.64,61.38-247.48,65.13-245.34,68.91z"/>
			<path class="st6" d="M-190.37,100.28c0.01,0.21,0.02,0.39,0.03,0.62c0.38,7.96-5.05,12.59-11.81,15.41
				c-1.49,0.6-3.12,0.87-4.74,0.99c-2.64,0.44-5.25,0.16-7.88-0.26c-17.71-2.74-31.85-11.8-43.93-24.59
				c-1.91-2.02-3.75-4.08-5.42-6.26c2.24,3.94,5.25,7.39,8.41,10.74c12.07,12.79,26.22,21.85,43.93,24.59
				c2.63,0.42,5.24,0.69,7.88,0.26c1.62-0.12,3.25-0.39,4.74-0.99c6.76-2.82,12.19-7.44,11.81-15.41
				C-187.52,101.73-187.53,101.32-190.37,100.28z"/>
		</g>
		<g>
			<path class="st7" d="M-203.62,59.43c2.79,2.71,4.66,6.03,6.17,9.59c1.2,2.84,1.89,5.8,2.26,8.85c0.07,0.6,0.31,1.29-0.31,1.82
				c-1.66,0.03-3.31,0.01-4.95,0.1c-0.65,0.05-0.82-0.12-0.88-0.76c-0.47-5.71-2.57-10.82-6.29-15.16
				c-5.41-6.32-12.32-9.61-20.68-9.78c-0.22-0.01-0.43,0-1.09-0.01c0.04-1.85,0.08-3.73,0.12-5.6c0.39-0.62,1.04-0.47,1.6-0.44
				c3.44,0.08,6.8,0.69,10.05,1.83c2.65,0.93,5.18,2.14,7.49,3.75c0.71,0.49,1.38,1.03,2.01,1.64c0.52,0.48,1.57,1.46,2.09,1.93
				C-205.41,57.76-204.2,58.86-203.62,59.43z"/>
			<path class="st7" d="M-211.9,63.74c4.36,4.14,6.93,9.25,7.59,15.3c0.07,0.72-0.1,0.96-0.85,0.95c-1.46-0.01-2.94,0.07-4.4,0.16
				c-0.45,0-0.62-0.07-0.66-0.59c-0.53-5.26-2.92-9.54-7.09-12.76c-3.08-2.37-6.62-3.63-10.53-3.69c-0.63-0.01-0.83-0.16-0.83-0.8
				c-0.01-1.51-0.07-3.01-0.17-4.5c-0.03-0.52,0.1-0.65,0.63-0.63C-221.98,57.29-216.57,59.48-211.9,63.74z"/>
			<path class="st7" d="M-218.87,80.46c-0.43-4.91-4.02-8.44-8.82-8.72c-0.45-0.02-0.65-0.07-0.65-0.59
				c-0.03-1.49-0.1-2.99-0.19-4.48c-0.04-0.46,0.06-0.59,0.54-0.59c7.25-0.13,14.34,6.43,14.74,13.7c0.04,0.43-0.14,0.47-0.49,0.49
				C-215.43,80.31-217.11,80.4-218.87,80.46z"/>
		</g>
	</g>
	<g>
		<path class="st8" d="M-206.89,117.3c-2.64,0.44-5.25,0.16-7.88-0.26c-17.71-2.74-31.85-11.8-43.93-24.59
			c-4.56-4.85-8.86-9.85-10.89-16.32c-2.41-7.71-0.99-14.74,4.21-20.89c1.66-1.99,7.28-3.47,9.71-2.63c0.89,0.3,1.54,0.99,1.99,1.76
			c2.79,4.82,5.57,9.66,8.33,14.52c0.52,0.91,0.46,1.91,0.14,2.95c-0.79,2.51-2.29,4.6-3.83,6.71c-1.18,1.56-1.06,2.81,0.13,4.34
			c7.3,9.25,16.56,15.52,28.02,18.53c1.71,0.45,2.92,0.09,3.83-1.43c1.53-2.49,3.19-4.95,4.62-7.51c0.97-1.76,2.29-2.17,4.04-1.65
			c3.83,1.22,7.65,2.49,11.46,3.73c0.86,0.29,1.71,0.57,2.56,0.86c3.89,1.36,3.84,1.41,4.04,5.47c0.38,7.96-5.05,12.59-11.81,15.41
			C-203.64,116.91-205.27,117.18-206.89,117.3z"/>
		<g>
			<path class="st8" d="M-207.71,55.53c3.21,2.19,5.63,5.15,7.72,8.39c1.67,2.59,2.85,5.39,3.74,8.33c0.18,0.58,0.53,1.22,0.01,1.85
				c-1.63,0.31-3.26,0.58-4.86,0.94c-0.63,0.16-0.83,0.02-0.99-0.6c-1.44-5.55-4.38-10.22-8.79-13.86
				c-6.41-5.3-13.78-7.36-22.05-6.1c-0.21,0.03-0.43,0.07-1.07,0.18c-0.28-1.83-0.56-3.69-0.83-5.54c0.28-0.68,0.94-0.64,1.5-0.71
				c3.41-0.51,6.81-0.48,10.22,0.09c2.77,0.46,5.47,1.22,8.02,2.42c0.78,0.36,1.54,0.78,2.27,1.27c0.6,0.38,1.79,1.17,2.39,1.55
				C-209.76,54.19-208.38,55.08-207.71,55.53z"/>
			<path class="st8" d="M-215.14,61.2c5,3.34,8.41,7.93,10.09,13.78c0.2,0.7,0.07,0.97-0.67,1.08c-1.44,0.24-2.88,0.57-4.31,0.91
				c-0.45,0.08-0.62,0.04-0.75-0.47c-1.42-5.09-4.51-8.9-9.17-11.36c-3.44-1.81-7.14-2.45-11.01-1.84c-0.63,0.1-0.85-0.02-0.96-0.65
				c-0.26-1.48-0.58-2.96-0.94-4.41c-0.12-0.5-0.01-0.66,0.52-0.73C-226.16,56.56-220.46,57.8-215.14,61.2z"/>
			<path class="st8" d="M-219.14,78.86c-1.27-4.76-5.4-7.63-10.18-7.09c-0.45,0.06-0.65,0.04-0.74-0.47
				c-0.28-1.46-0.61-2.93-0.95-4.38c-0.11-0.44-0.04-0.6,0.43-0.68c7.12-1.37,15.22,3.88,16.87,10.98c0.11,0.42-0.06,0.49-0.4,0.57
				C-215.77,78.13-217.42,78.5-219.14,78.86z"/>
		</g>
	</g>
</g>
</svg>
