<?xml version="1.0" encoding="utf-8"?>
<svg id="ICON" xmlns="http://www.w3.org/2000/svg" viewBox="0 0 168 128"><title>shield-lock</title><g id="shield-lock"><path d="M102,52h-2V46a16,16,0,0,0-32,0v6H66a2,2,0,0,0-2,2V82a2,2,0,0,0,2,2h36a2,2,0,0,0,2-2V54A2,2,0,0,0,102,52ZM72,46a12,12,0,0,1,24,0v6H72Zm28,34H68V56h32Z" style="fill:#0b9dcc"/><path d="M82,67.45V74a2,2,0,0,0,4,0V67.45a4,4,0,1,0-4,0Z" style="fill:#0b9dcc"/><path d="M84,128a2,2,0,0,1-.93-.23,128.38,128.38,0,0,1-23.4-16.53C44.18,97.44,36,82.49,36,68V20a2,2,0,0,1,1.27-1.86l46-18a1.94,1.94,0,0,1,1.46,0l46,18A2,2,0,0,1,132,20V68c0,14.49-8.18,29.44-23.67,43.24a128.38,128.38,0,0,1-23.4,16.53A2,2,0,0,1,84,128ZM40,21.37V68c0,29.76,37.57,52.12,44,55.72,6.43-3.6,44-26,44-55.72V21.37L84,4.15Z" style="fill:#001b41"/></g></svg>