<?xml version="1.0" encoding="utf-8"?>
<!-- Generator: Adobe Illustrator 23.0.1, SVG Export Plug-In . SVG Version: 6.00 Build 0)  -->
<svg version="1.1" id="Layer_1" xmlns="http://www.w3.org/2000/svg" xmlns:xlink="http://www.w3.org/1999/xlink" x="0px" y="0px"
	 viewBox="0 0 150.04 150.59" style="enable-background:new 0 0 150.04 150.59;" xml:space="preserve">
<style type="text/css">
	.st0{fill-rule:evenodd;clip-rule:evenodd;fill:#0D9F16;}
	.st1{fill:#0D9F16;}
	.st2{fill-rule:evenodd;clip-rule:evenodd;fill:#FCFCFC;}
	.st3{fill-rule:evenodd;clip-rule:evenodd;fill:#FDFDFD;}
</style>
<g>
	<path d="M74.98,6.5c37.77,0,68.5,30.73,68.5,68.5s-30.73,68.5-68.5,68.5S6.48,112.77,6.48,75S37.2,6.5,74.98,6.5 M74.98,1.5
		C34.38,1.5,1.48,34.41,1.48,75s32.91,73.5,73.5,73.5s73.5-32.91,73.5-73.5S115.57,1.5,74.98,1.5L74.98,1.5z"/>
</g>
<g>
	<circle class="st0" cx="51.85" cy="99.85" r="4.92"/>
	<circle class="st0" cx="99.65" cy="111.1" r="6.33"/>
	<path class="st1" d="M113,73.34c0,19.48-15.8,35.29-35.28,35.29c-19.49,0-35.28-15.81-35.28-35.29s15.79-35.28,35.28-35.28
		C97.2,38.06,113,53.86,113,73.34z"/>
	<path d="M107.52,67.86c0,19.48-15.8,35.29-35.28,35.29c-19.49,0-35.28-15.81-35.28-35.29s15.79-35.28,35.28-35.28
		C91.72,32.57,107.52,48.38,107.52,67.86z"/>
	<g>
		<path class="st2" d="M92.65,62.95c-2.3-9.54-10.51-16.05-20.43-16.17c-1.31,0.02-2.68,0.13-4.03,0.41
			C54.35,50,47.17,65.35,53.92,77.74c0.17,0.33,0.19,0.6,0.09,0.94c-0.9,3.27-1.79,6.53-2.68,9.79c-0.14,0.54-0.14,0.54,0.39,0.4
			c3.39-0.89,6.77-1.77,10.15-2.67c0.28-0.08,0.5-0.04,0.76,0.09c4.36,2.23,8.95,2.88,13.76,1.95
			C87.89,86.01,95.39,74.32,92.65,62.95z M75.15,84.88c-0.95,0.16-1.9,0.25-2.4,0.24c-3.68-0.01-6.68-0.84-9.44-2.51
			c-0.35-0.21-0.66-0.27-1.07-0.16c-1.86,0.51-3.72,0.97-5.58,1.47c-0.39,0.12-0.43,0.03-0.33-0.32c0.49-1.77,0.96-3.52,1.46-5.27
			c0.14-0.49,0.09-0.87-0.19-1.31c-3.82-6.14-3.66-13.78,0.62-19.46c4.44-5.91,10.48-8.33,17.7-6.79
			c7.12,1.5,11.65,6.09,13.32,13.17C91.51,73.62,84.94,83.25,75.15,84.88z"/>
		<path class="st3" d="M77.7,77.76c-0.75,0.03-1.46-0.14-2.17-0.33c-4.81-1.38-8.41-4.39-11.31-8.35c-1.1-1.49-2.11-3.03-2.45-4.88
			c-0.4-2.23,0.24-4.11,1.89-5.66c0.53-0.48,2.13-0.7,2.78-0.39c0.24,0.12,0.39,0.33,0.49,0.56c0.61,1.45,1.21,2.87,1.8,4.32
			c0.11,0.28,0.06,0.55-0.06,0.82c-0.31,0.66-0.8,1.2-1.29,1.72c-0.38,0.39-0.39,0.74-0.12,1.2c1.7,2.83,4.05,4.88,7.12,6.12
			c0.46,0.18,0.8,0.12,1.11-0.27c0.51-0.63,1.05-1.26,1.54-1.92c0.33-0.46,0.71-0.52,1.18-0.31c1.02,0.46,2.03,0.94,3.04,1.42
			c0.23,0.1,0.45,0.21,0.68,0.32c1.03,0.51,1.02,0.52,0.93,1.66c-0.17,2.22-1.83,3.31-3.81,3.86C78.61,77.77,78.15,77.78,77.7,77.76
			z"/>
	</g>
	<circle class="st0" cx="57.47" cy="106.88" r="2.11"/>
</g>
</svg>
